<mxfile host="65bd71144e">
    <diagram name="Page-1" id="YVPe9FCG_iG_xcOM2vg-">
        <mxGraphModel dx="2875" dy="1912" grid="1" gridSize="5" guides="1" tooltips="1" connect="1" arrows="0" fold="1" page="1" pageScale="1" pageWidth="827" pageHeight="1169" background="#C4B49C" math="0" shadow="0">
            <root>
                <mxCell id="0"/>
                <mxCell id="1" parent="0"/>
                <mxCell id="96" value="" style="rounded=1;whiteSpace=wrap;html=1;fillColor=none;fontColor=#000000;labelBorderColor=none;strokeColor=#0F8B8D;" vertex="1" parent="1">
                    <mxGeometry x="-942" y="328" width="344" height="488" as="geometry"/>
                </mxCell>
                <mxCell id="93" value="" style="rounded=1;whiteSpace=wrap;html=1;fillColor=#fae5c7;fontColor=#000000;labelBorderColor=none;movable=1;resizable=1;rotatable=1;deletable=1;editable=1;connectable=1;strokeColor=#0F8B8D;" vertex="1" parent="1">
                    <mxGeometry x="-1500" y="-440" width="1940" height="1350" as="geometry"/>
                </mxCell>
                <mxCell id="83" value="" style="rounded=1;whiteSpace=wrap;html=1;fillColor=none;container=0;fontColor=#000000;labelBorderColor=none;strokeColor=#0F8B8D;" vertex="1" parent="1">
                    <mxGeometry x="-1460" y="328" width="485" height="197" as="geometry"/>
                </mxCell>
                <mxCell id="70" value="" style="rounded=1;whiteSpace=wrap;html=1;fillColor=none;fontColor=#000000;labelBorderColor=none;strokeColor=#0F8B8D;" vertex="1" parent="1">
                    <mxGeometry x="-942" y="328" width="344" height="488" as="geometry"/>
                </mxCell>
                <mxCell id="awvY_ZOCH91SfcmAsjb5-129" value="" style="rounded=1;whiteSpace=wrap;html=1;fontSize=12;labelBackgroundColor=none;fillStyle=auto;fillColor=#FAE5C7;strokeColor=#0F8B8D;fontColor=#000000;labelBorderColor=none;" parent="1" vertex="1">
                    <mxGeometry x="-360" y="-220" width="780" height="1020" as="geometry"/>
                </mxCell>
                <mxCell id="awvY_ZOCH91SfcmAsjb5-125" value="" style="rounded=1;whiteSpace=wrap;html=1;fontSize=12;labelBackgroundColor=none;fillColor=#FAE5C7;strokeColor=#0F8B8D;fontColor=#000000;labelBorderColor=none;" parent="1" vertex="1">
                    <mxGeometry x="-320" y="-110" width="700" height="870" as="geometry"/>
                </mxCell>
                <mxCell id="awvY_ZOCH91SfcmAsjb5-5" value="" style="rhombus;whiteSpace=wrap;html=1;fontSize=12;labelBackgroundColor=none;fillColor=#FAE5C7;strokeColor=#0F8B8D;fontColor=#000000;rounded=1;labelBorderColor=none;" parent="1" vertex="1">
                    <mxGeometry x="-320" y="-30" width="700" height="700" as="geometry"/>
                </mxCell>
                <mxCell id="awvY_ZOCH91SfcmAsjb5-33" style="edgeStyle=none;curved=1;rounded=1;orthogonalLoop=1;jettySize=auto;html=1;exitX=0.5;exitY=1;exitDx=0;exitDy=0;entryX=0.5;entryY=0;entryDx=0;entryDy=0;fontSize=12;startSize=8;endSize=8;labelBackgroundColor=none;fontColor=#000000;startArrow=none;strokeColor=#A8201A;labelBorderColor=none;" parent="1" source="kPXdXTe3XIWydvKljvxz-2" target="awvY_ZOCH91SfcmAsjb5-10" edge="1">
                    <mxGeometry relative="1" as="geometry"/>
                </mxCell>
                <mxCell id="awvY_ZOCH91SfcmAsjb5-82" style="edgeStyle=none;curved=1;rounded=1;orthogonalLoop=1;jettySize=auto;html=1;exitX=0.5;exitY=1;exitDx=0;exitDy=0;entryX=0.5;entryY=0;entryDx=0;entryDy=0;fontSize=12;startSize=8;endSize=8;labelBackgroundColor=none;fontColor=#000000;strokeColor=#A8201A;startArrow=none;labelBorderColor=none;" parent="1" source="4" target="kPXdXTe3XIWydvKljvxz-2" edge="1">
                    <mxGeometry relative="1" as="geometry">
                        <mxPoint x="30" y="-250" as="targetPoint"/>
                    </mxGeometry>
                </mxCell>
                <mxCell id="6" value="False" style="edgeLabel;html=1;align=center;verticalAlign=middle;resizable=0;points=[];rounded=1;fontColor=#000000;labelBorderColor=none;labelBackgroundColor=#fae5c7;" vertex="1" connectable="0" parent="awvY_ZOCH91SfcmAsjb5-82">
                    <mxGeometry relative="1" as="geometry">
                        <mxPoint y="-26" as="offset"/>
                    </mxGeometry>
                </mxCell>
                <mxCell id="awvY_ZOCH91SfcmAsjb5-4" value="start" style="ellipse;whiteSpace=wrap;html=1;fontSize=12;labelBackgroundColor=none;fillColor=#FAE5C7;strokeColor=#0F8B8D;fontColor=#000000;rounded=1;labelBorderColor=none;" parent="1" vertex="1">
                    <mxGeometry x="-30" y="-630" width="120" height="80" as="geometry"/>
                </mxCell>
                <mxCell id="awvY_ZOCH91SfcmAsjb5-20" style="edgeStyle=none;curved=1;rounded=1;orthogonalLoop=1;jettySize=auto;html=1;exitX=1;exitY=0.5;exitDx=0;exitDy=0;entryX=0;entryY=1;entryDx=0;entryDy=0;fontSize=12;startSize=8;endSize=8;labelBackgroundColor=none;fontColor=#000000;strokeColor=#A8201A;labelBorderColor=none;" parent="1" source="awvY_ZOCH91SfcmAsjb5-28" target="kPXdXTe3XIWydvKljvxz-4" edge="1">
                    <mxGeometry relative="1" as="geometry">
                        <mxPoint x="-80" y="320" as="sourcePoint"/>
                    </mxGeometry>
                </mxCell>
                <mxCell id="awvY_ZOCH91SfcmAsjb5-24" value="True" style="edgeLabel;html=1;align=center;verticalAlign=middle;resizable=0;points=[];fontSize=12;labelBackgroundColor=none;fontColor=#000000;rounded=1;labelBorderColor=none;" parent="awvY_ZOCH91SfcmAsjb5-20" connectable="0" vertex="1">
                    <mxGeometry x="-0.2071" y="-3" relative="1" as="geometry">
                        <mxPoint x="-1" as="offset"/>
                    </mxGeometry>
                </mxCell>
                <mxCell id="awvY_ZOCH91SfcmAsjb5-21" style="edgeStyle=none;curved=1;rounded=1;orthogonalLoop=1;jettySize=auto;html=1;exitX=1;exitY=0.5;exitDx=0;exitDy=0;fontSize=12;startSize=8;endSize=8;entryX=0.5;entryY=0;entryDx=0;entryDy=0;labelBackgroundColor=none;fontColor=#000000;strokeColor=#A8201A;labelBorderColor=none;" parent="1" source="awvY_ZOCH91SfcmAsjb5-10" target="kPXdXTe3XIWydvKljvxz-4" edge="1">
                    <mxGeometry relative="1" as="geometry">
                        <mxPoint x="380" y="250.23529411764707" as="targetPoint"/>
                    </mxGeometry>
                </mxCell>
                <mxCell id="awvY_ZOCH91SfcmAsjb5-23" value="True" style="edgeLabel;html=1;align=center;verticalAlign=middle;resizable=0;points=[];fontSize=12;labelBackgroundColor=none;fontColor=#000000;rounded=1;labelBorderColor=none;" parent="awvY_ZOCH91SfcmAsjb5-21" connectable="0" vertex="1">
                    <mxGeometry x="-0.3116" relative="1" as="geometry">
                        <mxPoint as="offset"/>
                    </mxGeometry>
                </mxCell>
                <mxCell id="awvY_ZOCH91SfcmAsjb5-44" style="edgeStyle=none;curved=1;rounded=1;orthogonalLoop=1;jettySize=auto;html=1;exitX=0;exitY=1;exitDx=0;exitDy=0;fontSize=12;startSize=8;endSize=8;entryX=1;entryY=0;entryDx=0;entryDy=0;labelBackgroundColor=none;fontColor=#000000;strokeColor=#A8201A;labelBorderColor=none;" parent="1" source="awvY_ZOCH91SfcmAsjb5-10" target="awvY_ZOCH91SfcmAsjb5-42" edge="1">
                    <mxGeometry relative="1" as="geometry">
                        <mxPoint x="-30" y="190" as="targetPoint"/>
                    </mxGeometry>
                </mxCell>
                <mxCell id="awvY_ZOCH91SfcmAsjb5-45" value="&lt;font style=&quot;font-size: 12px;&quot;&gt;False&lt;/font&gt;" style="edgeLabel;html=1;align=center;verticalAlign=middle;resizable=0;points=[];fontSize=12;labelBackgroundColor=none;fontColor=#000000;rounded=1;labelBorderColor=none;" parent="awvY_ZOCH91SfcmAsjb5-44" connectable="0" vertex="1">
                    <mxGeometry relative="1" as="geometry">
                        <mxPoint as="offset"/>
                    </mxGeometry>
                </mxCell>
                <mxCell id="awvY_ZOCH91SfcmAsjb5-10" value="len(valid_proxies)&lt;br style=&quot;font-size: 12px;&quot;&gt;== 0" style="rhombus;whiteSpace=wrap;html=1;fontSize=12;labelBackgroundColor=none;fillColor=#FAE5C7;strokeColor=#0F8B8D;fontColor=#000000;rounded=1;labelBorderColor=none;" parent="1" vertex="1">
                    <mxGeometry x="-40" y="40" width="140" height="140" as="geometry"/>
                </mxCell>
                <mxCell id="awvY_ZOCH91SfcmAsjb5-34" style="edgeStyle=none;curved=1;rounded=1;orthogonalLoop=1;jettySize=auto;html=1;exitX=1;exitY=0.5;exitDx=0;exitDy=0;entryX=0.5;entryY=1;entryDx=0;entryDy=0;fontSize=12;startSize=8;endSize=8;labelBackgroundColor=none;fontColor=#000000;strokeColor=#A8201A;labelBorderColor=none;" parent="1" source="awvY_ZOCH91SfcmAsjb5-13" target="kPXdXTe3XIWydvKljvxz-4" edge="1">
                    <mxGeometry relative="1" as="geometry"/>
                </mxCell>
                <mxCell id="awvY_ZOCH91SfcmAsjb5-35" value="True" style="edgeLabel;html=1;align=center;verticalAlign=middle;resizable=0;points=[];fontSize=12;labelBackgroundColor=none;fontColor=#000000;rounded=1;labelBorderColor=none;" parent="awvY_ZOCH91SfcmAsjb5-34" connectable="0" vertex="1">
                    <mxGeometry x="-0.3062" y="-2" relative="1" as="geometry">
                        <mxPoint as="offset"/>
                    </mxGeometry>
                </mxCell>
                <mxCell id="awvY_ZOCH91SfcmAsjb5-13" value="request_counter&lt;br style=&quot;font-size: 12px;&quot;&gt;%&lt;br style=&quot;font-size: 12px;&quot;&gt;len(valid_proxies)&lt;br style=&quot;font-size: 12px;&quot;&gt;== 0" style="rhombus;whiteSpace=wrap;html=1;fontSize=12;labelBackgroundColor=none;fillColor=#FAE5C7;strokeColor=#0F8B8D;fontColor=#000000;rounded=1;labelBorderColor=none;" parent="1" vertex="1">
                    <mxGeometry x="-40" y="460" width="140" height="140" as="geometry"/>
                </mxCell>
                <mxCell id="awvY_ZOCH91SfcmAsjb5-18" value="" style="rounded=1;whiteSpace=wrap;html=1;fontSize=12;labelBackgroundColor=none;fillColor=#FAE5C7;strokeColor=#0F8B8D;fontColor=#000000;labelBorderColor=none;" parent="1" vertex="1">
                    <mxGeometry x="500" y="240" width="320" height="560" as="geometry"/>
                </mxCell>
                <mxCell id="awvY_ZOCH91SfcmAsjb5-36" style="edgeStyle=none;curved=1;rounded=1;orthogonalLoop=1;jettySize=auto;html=1;exitX=1;exitY=1;exitDx=0;exitDy=0;entryX=0;entryY=0;entryDx=0;entryDy=0;fontSize=12;startSize=8;endSize=8;labelBackgroundColor=none;fontColor=#000000;strokeColor=#A8201A;labelBorderColor=none;" parent="1" source="awvY_ZOCH91SfcmAsjb5-28" target="awvY_ZOCH91SfcmAsjb5-13" edge="1">
                    <mxGeometry relative="1" as="geometry"/>
                </mxCell>
                <mxCell id="awvY_ZOCH91SfcmAsjb5-37" value="False" style="edgeLabel;html=1;align=center;verticalAlign=middle;resizable=0;points=[];fontSize=12;labelBackgroundColor=none;fontColor=#000000;rounded=1;labelBorderColor=none;" parent="awvY_ZOCH91SfcmAsjb5-36" connectable="0" vertex="1">
                    <mxGeometry relative="1" as="geometry">
                        <mxPoint as="offset"/>
                    </mxGeometry>
                </mxCell>
                <mxCell id="awvY_ZOCH91SfcmAsjb5-28" value="bad_proxies&lt;br style=&quot;font-size: 12px;&quot;&gt;/ (len(valid_proxies) + bad_proxies) &amp;gt;&lt;br style=&quot;font-size: 12px;&quot;&gt;accepted_bad_proxy&lt;br style=&quot;font-size: 12px;&quot;&gt;_quote" style="rhombus;whiteSpace=wrap;html=1;fontSize=12;labelBackgroundColor=none;fillColor=#FAE5C7;strokeColor=#0F8B8D;fontColor=#000000;rounded=1;labelBorderColor=none;" parent="1" vertex="1">
                    <mxGeometry x="-160" y="340" width="140" height="140" as="geometry"/>
                </mxCell>
                <mxCell id="awvY_ZOCH91SfcmAsjb5-40" value="self.__check_proxy_pool(run=0.1)" style="text;html=1;align=center;verticalAlign=middle;whiteSpace=wrap;rounded=1;fontSize=12;rotation=0;labelBackgroundColor=none;fontColor=#000000;labelBorderColor=none;" parent="1" vertex="1">
                    <mxGeometry x="-295" y="-220" width="250" height="30" as="geometry"/>
                </mxCell>
                <mxCell id="awvY_ZOCH91SfcmAsjb5-41" value="self.__get_valid_proxies(run)" style="text;html=1;strokeColor=none;fillColor=none;align=center;verticalAlign=middle;whiteSpace=wrap;rounded=1;fontSize=12;labelBackgroundColor=none;fontColor=#000000;labelBorderColor=none;" parent="1" vertex="1">
                    <mxGeometry x="525" y="240" width="160" height="20" as="geometry"/>
                </mxCell>
                <mxCell id="awvY_ZOCH91SfcmAsjb5-46" style="edgeStyle=none;curved=1;rounded=1;orthogonalLoop=1;jettySize=auto;html=1;exitX=0.5;exitY=1;exitDx=0;exitDy=0;entryX=0.5;entryY=0;entryDx=0;entryDy=0;fontSize=12;startSize=8;endSize=8;labelBackgroundColor=none;fontColor=#000000;strokeColor=#A8201A;labelBorderColor=none;" parent="1" source="awvY_ZOCH91SfcmAsjb5-42" target="awvY_ZOCH91SfcmAsjb5-28" edge="1">
                    <mxGeometry relative="1" as="geometry"/>
                </mxCell>
                <mxCell id="awvY_ZOCH91SfcmAsjb5-47" value="False" style="edgeLabel;html=1;align=center;verticalAlign=middle;resizable=0;points=[];fontSize=12;labelBackgroundColor=none;fontColor=#000000;rounded=1;labelBorderColor=none;" parent="awvY_ZOCH91SfcmAsjb5-46" connectable="0" vertex="1">
                    <mxGeometry relative="1" as="geometry">
                        <mxPoint as="offset"/>
                    </mxGeometry>
                </mxCell>
                <mxCell id="awvY_ZOCH91SfcmAsjb5-48" style="edgeStyle=none;curved=1;rounded=1;orthogonalLoop=1;jettySize=auto;html=1;exitX=1;exitY=0.5;exitDx=0;exitDy=0;entryX=0;entryY=0;entryDx=0;entryDy=0;fontSize=12;startSize=8;endSize=8;labelBackgroundColor=none;fontColor=#000000;strokeColor=#A8201A;labelBorderColor=none;" parent="1" source="awvY_ZOCH91SfcmAsjb5-42" target="kPXdXTe3XIWydvKljvxz-4" edge="1">
                    <mxGeometry relative="1" as="geometry"/>
                </mxCell>
                <mxCell id="awvY_ZOCH91SfcmAsjb5-49" value="True" style="edgeLabel;html=1;align=center;verticalAlign=middle;resizable=0;points=[];fontSize=12;labelBackgroundColor=none;fontColor=#000000;rounded=1;labelBorderColor=none;" parent="awvY_ZOCH91SfcmAsjb5-48" connectable="0" vertex="1">
                    <mxGeometry relative="1" as="geometry">
                        <mxPoint as="offset"/>
                    </mxGeometry>
                </mxCell>
                <mxCell id="awvY_ZOCH91SfcmAsjb5-42" value="len(valid_proxies)&lt;br style=&quot;font-size: 12px;&quot;&gt;&amp;lt;&lt;br style=&quot;font-size: 12px;&quot;&gt;min_valid_proxies" style="rhombus;whiteSpace=wrap;html=1;fontSize=12;labelBackgroundColor=none;fillColor=#FAE5C7;strokeColor=#0F8B8D;fontColor=#000000;rounded=1;labelBorderColor=none;" parent="1" vertex="1">
                    <mxGeometry x="-160" y="160" width="140" height="140" as="geometry"/>
                </mxCell>
                <mxCell id="awvY_ZOCH91SfcmAsjb5-55" value="" style="group;labelBackgroundColor=none;fontColor=#000000;fontSize=12;rounded=1;labelBorderColor=none;" parent="1" connectable="0" vertex="1">
                    <mxGeometry x="520" y="290" width="290" height="150" as="geometry"/>
                </mxCell>
                <mxCell id="awvY_ZOCH91SfcmAsjb5-52" value="read_valid&lt;br style=&quot;font-size: 12px;&quot;&gt;_proxy_file()" style="rounded=1;whiteSpace=wrap;html=1;fontSize=12;movable=1;resizable=1;rotatable=1;deletable=1;editable=1;locked=0;connectable=1;labelBackgroundColor=none;fillColor=#FAE5C7;strokeColor=#0F8B8D;fontColor=#000000;labelBorderColor=none;" parent="awvY_ZOCH91SfcmAsjb5-55" vertex="1">
                    <mxGeometry width="280" height="140" as="geometry"/>
                </mxCell>
                <mxCell id="awvY_ZOCH91SfcmAsjb5-75" style="edgeStyle=none;curved=1;rounded=1;orthogonalLoop=1;jettySize=auto;html=1;exitX=0;exitY=0.75;exitDx=0;exitDy=0;fontSize=12;startSize=8;endSize=8;labelBackgroundColor=none;fontColor=#000000;strokeColor=#A8201A;startArrow=none;labelBorderColor=none;" parent="awvY_ZOCH91SfcmAsjb5-55" source="kPXdXTe3XIWydvKljvxz-19" edge="1">
                    <mxGeometry relative="1" as="geometry">
                        <mxPoint x="340" y="70" as="targetPoint"/>
                    </mxGeometry>
                </mxCell>
                <mxCell id="awvY_ZOCH91SfcmAsjb5-53" value="" style="rhombus;whiteSpace=wrap;html=1;fontSize=12;movable=1;resizable=1;rotatable=1;deletable=1;editable=1;locked=0;connectable=1;fillColor=none;labelBackgroundColor=none;strokeColor=#0F8B8D;fontColor=#000000;rounded=1;labelBorderColor=none;" parent="awvY_ZOCH91SfcmAsjb5-55" vertex="1">
                    <mxGeometry x="70" width="140" height="140" as="geometry"/>
                </mxCell>
                <mxCell id="kPXdXTe3XIWydvKljvxz-15" value="-&amp;gt; self.__valid_proxies" style="text;html=1;strokeColor=none;fillColor=none;align=center;verticalAlign=middle;whiteSpace=wrap;rounded=1;fontSize=12;fontColor=#000000;labelBackgroundColor=none;labelBorderColor=none;" parent="awvY_ZOCH91SfcmAsjb5-55" vertex="1">
                    <mxGeometry x="150" y="120" width="130" height="20" as="geometry"/>
                </mxCell>
                <mxCell id="kPXdXTe3XIWydvKljvxz-19" value="False" style="text;html=1;strokeColor=none;fillColor=none;align=center;verticalAlign=middle;whiteSpace=wrap;rounded=1;fontSize=12;fontColor=#000000;labelBackgroundColor=none;labelBorderColor=none;" parent="awvY_ZOCH91SfcmAsjb5-55" vertex="1">
                    <mxGeometry x="210" y="55" width="50" height="20" as="geometry"/>
                </mxCell>
                <mxCell id="kPXdXTe3XIWydvKljvxz-20" value="" style="edgeStyle=none;curved=1;rounded=1;orthogonalLoop=1;jettySize=auto;html=1;exitX=1;exitY=0.5;exitDx=0;exitDy=0;fontSize=12;startSize=8;endSize=8;labelBackgroundColor=none;fontColor=#000000;strokeColor=#A8201A;endArrow=none;labelBorderColor=none;" parent="awvY_ZOCH91SfcmAsjb5-55" source="awvY_ZOCH91SfcmAsjb5-53" target="kPXdXTe3XIWydvKljvxz-19" edge="1">
                    <mxGeometry relative="1" as="geometry">
                        <mxPoint x="730.0000000000005" y="360" as="sourcePoint"/>
                        <mxPoint x="860.0000000000005" y="360" as="targetPoint"/>
                    </mxGeometry>
                </mxCell>
                <mxCell id="awvY_ZOCH91SfcmAsjb5-56" value="" style="endArrow=classic;html=1;rounded=1;fontSize=12;startSize=8;endSize=8;curved=1;exitX=0.5;exitY=0;exitDx=0;exitDy=0;labelBackgroundColor=none;fontColor=#000000;strokeColor=#A8201A;labelBorderColor=none;" parent="1" source="awvY_ZOCH91SfcmAsjb5-52" edge="1">
                    <mxGeometry width="50" height="50" relative="1" as="geometry">
                        <mxPoint x="720" y="240" as="sourcePoint"/>
                        <mxPoint x="660" y="-70" as="targetPoint"/>
                    </mxGeometry>
                </mxCell>
                <mxCell id="awvY_ZOCH91SfcmAsjb5-58" value="True" style="edgeLabel;html=1;align=center;verticalAlign=middle;resizable=0;points=[];fontSize=12;labelBackgroundColor=none;fontColor=#000000;rounded=1;labelBorderColor=none;" parent="awvY_ZOCH91SfcmAsjb5-56" connectable="0" vertex="1">
                    <mxGeometry x="0.3267" y="-1" relative="1" as="geometry">
                        <mxPoint as="offset"/>
                    </mxGeometry>
                </mxCell>
                <mxCell id="awvY_ZOCH91SfcmAsjb5-60" value="start_validating_proxies()" style="rounded=1;whiteSpace=wrap;html=1;fontSize=12;labelBackgroundColor=none;fillColor=#FAE5C7;strokeColor=#0F8B8D;fontColor=#000000;labelBorderColor=none;" parent="1" vertex="1">
                    <mxGeometry x="770" y="-100" width="200" height="60" as="geometry"/>
                </mxCell>
                <mxCell id="awvY_ZOCH91SfcmAsjb5-62" value="" style="endArrow=classic;html=1;rounded=1;fontSize=12;startSize=8;endSize=8;curved=1;exitX=0;exitY=0.5;exitDx=0;exitDy=0;labelBackgroundColor=none;fontColor=#000000;strokeColor=#A8201A;labelBorderColor=none;" parent="1" source="awvY_ZOCH91SfcmAsjb5-60" edge="1">
                    <mxGeometry width="50" height="50" relative="1" as="geometry">
                        <mxPoint x="550" y="240" as="sourcePoint"/>
                        <mxPoint x="30" y="-70" as="targetPoint"/>
                    </mxGeometry>
                </mxCell>
                <mxCell id="awvY_ZOCH91SfcmAsjb5-65" style="edgeStyle=none;curved=1;rounded=1;orthogonalLoop=1;jettySize=auto;html=1;exitX=0.5;exitY=0;exitDx=0;exitDy=0;entryX=0.5;entryY=1;entryDx=0;entryDy=0;fontSize=12;startSize=8;endSize=8;labelBackgroundColor=none;fontColor=#000000;strokeColor=#A8201A;labelBorderColor=none;" parent="1" source="awvY_ZOCH91SfcmAsjb5-63" target="awvY_ZOCH91SfcmAsjb5-53" edge="1">
                    <mxGeometry relative="1" as="geometry"/>
                </mxCell>
                <mxCell id="awvY_ZOCH91SfcmAsjb5-66" value="True" style="edgeLabel;html=1;align=center;verticalAlign=middle;resizable=0;points=[];fontSize=12;labelBackgroundColor=none;fontColor=#000000;rounded=1;labelBorderColor=none;" parent="awvY_ZOCH91SfcmAsjb5-65" connectable="0" vertex="1">
                    <mxGeometry relative="1" as="geometry">
                        <mxPoint as="offset"/>
                    </mxGeometry>
                </mxCell>
                <mxCell id="awvY_ZOCH91SfcmAsjb5-68" style="edgeStyle=none;curved=1;rounded=1;orthogonalLoop=1;jettySize=auto;html=1;exitX=0.5;exitY=1;exitDx=0;exitDy=0;entryX=0.5;entryY=0;entryDx=0;entryDy=0;fontSize=12;startSize=8;endSize=8;labelBackgroundColor=none;fontColor=#000000;strokeColor=#A8201A;labelBorderColor=none;" parent="1" source="awvY_ZOCH91SfcmAsjb5-63" target="awvY_ZOCH91SfcmAsjb5-67" edge="1">
                    <mxGeometry relative="1" as="geometry"/>
                </mxCell>
                <mxCell id="awvY_ZOCH91SfcmAsjb5-69" value="False" style="edgeLabel;html=1;align=center;verticalAlign=middle;resizable=0;points=[];fontSize=12;labelBackgroundColor=none;fontColor=#000000;rounded=1;labelBorderColor=none;" parent="awvY_ZOCH91SfcmAsjb5-68" connectable="0" vertex="1">
                    <mxGeometry relative="1" as="geometry">
                        <mxPoint as="offset"/>
                    </mxGeometry>
                </mxCell>
                <mxCell id="awvY_ZOCH91SfcmAsjb5-63" value="run &amp;lt;= 1" style="rhombus;whiteSpace=wrap;html=1;fontSize=12;labelBackgroundColor=none;fillColor=#FAE5C7;strokeColor=#0F8B8D;fontColor=#000000;rounded=1;labelBorderColor=none;" parent="1" vertex="1">
                    <mxGeometry x="590" y="510" width="140" height="140" as="geometry"/>
                </mxCell>
                <mxCell id="awvY_ZOCH91SfcmAsjb5-67" value="delete_valid_proxy_file()" style="rounded=1;whiteSpace=wrap;html=1;fontSize=12;labelBackgroundColor=none;fillColor=#FAE5C7;strokeColor=#0F8B8D;fontColor=#000000;labelBorderColor=none;" parent="1" vertex="1">
                    <mxGeometry x="520" y="720" width="280" height="60" as="geometry"/>
                </mxCell>
                <mxCell id="awvY_ZOCH91SfcmAsjb5-127" style="edgeStyle=none;curved=1;rounded=1;orthogonalLoop=1;jettySize=auto;html=1;exitX=0.5;exitY=1;exitDx=0;exitDy=0;fontSize=12;startSize=8;endSize=8;labelBackgroundColor=none;fontColor=#000000;strokeColor=#A8201A;labelBorderColor=none;" parent="1" source="kPXdXTe3XIWydvKljvxz-6" edge="1">
                    <mxGeometry relative="1" as="geometry">
                        <mxPoint x="30" y="846" as="targetPoint"/>
                        <mxPoint x="30" y="730" as="sourcePoint"/>
                    </mxGeometry>
                </mxCell>
                <mxCell id="awvY_ZOCH91SfcmAsjb5-71" value="" style="endArrow=classic;html=1;rounded=1;fontSize=12;startSize=8;endSize=8;curved=1;exitX=0.5;exitY=1;exitDx=0;exitDy=0;entryX=0.5;entryY=0;entryDx=0;entryDy=0;labelBackgroundColor=none;fontColor=#000000;strokeColor=#A8201A;labelBorderColor=none;" parent="1" source="awvY_ZOCH91SfcmAsjb5-13" edge="1">
                    <mxGeometry width="50" height="50" relative="1" as="geometry">
                        <mxPoint x="290" y="470" as="sourcePoint"/>
                        <mxPoint x="30" y="670" as="targetPoint"/>
                    </mxGeometry>
                </mxCell>
                <mxCell id="awvY_ZOCH91SfcmAsjb5-72" value="False" style="edgeLabel;html=1;align=center;verticalAlign=middle;resizable=0;points=[];fontSize=12;labelBackgroundColor=none;fontColor=#000000;rounded=1;labelBorderColor=none;" parent="awvY_ZOCH91SfcmAsjb5-71" connectable="0" vertex="1">
                    <mxGeometry relative="1" as="geometry">
                        <mxPoint as="offset"/>
                    </mxGeometry>
                </mxCell>
                <mxCell id="awvY_ZOCH91SfcmAsjb5-92" value="" style="endArrow=classic;html=1;rounded=1;fontSize=12;startSize=8;endSize=8;curved=1;entryX=1;entryY=0.5;entryDx=0;entryDy=0;labelBackgroundColor=none;fontColor=#000000;strokeColor=#A8201A;labelBorderColor=none;" parent="1" target="awvY_ZOCH91SfcmAsjb5-60" edge="1">
                    <mxGeometry width="50" height="50" relative="1" as="geometry">
                        <mxPoint x="1110" y="-70" as="sourcePoint"/>
                        <mxPoint x="840" y="-80" as="targetPoint"/>
                    </mxGeometry>
                </mxCell>
                <mxCell id="awvY_ZOCH91SfcmAsjb5-128" value="while run != 0" style="text;html=1;align=center;verticalAlign=middle;whiteSpace=wrap;rounded=1;fontSize=12;labelBackgroundColor=none;strokeColor=#0F8B8D;fillColor=#FAE5C7;fontColor=#000000;labelBorderColor=none;" parent="1" vertex="1">
                    <mxGeometry x="-220" y="-110" width="130" height="30" as="geometry"/>
                </mxCell>
                <mxCell id="awvY_ZOCH91SfcmAsjb5-19" style="edgeStyle=none;curved=1;rounded=1;orthogonalLoop=1;jettySize=auto;html=1;exitX=1;exitY=0.5;exitDx=0;exitDy=0;fontSize=12;startSize=8;endSize=8;labelBackgroundColor=none;fontColor=#000000;strokeColor=#A8201A;labelBorderColor=none;" parent="1" source="kPXdXTe3XIWydvKljvxz-4" edge="1">
                    <mxGeometry relative="1" as="geometry">
                        <mxPoint x="460" y="320" as="targetPoint"/>
                    </mxGeometry>
                </mxCell>
                <mxCell id="awvY_ZOCH91SfcmAsjb5-132" value="variables" style="swimlane;fontStyle=0;childLayout=stackLayout;horizontal=1;startSize=30;horizontalStack=0;resizeParent=1;resizeParentMax=0;resizeLast=0;collapsible=1;marginBottom=0;whiteSpace=wrap;html=1;fontSize=12;labelBackgroundColor=none;fillColor=#FAE5C7;strokeColor=#0F8B8D;fontColor=#000000;rounded=1;labelBorderColor=none;" parent="1" vertex="1">
                    <mxGeometry x="830" y="40" width="140" height="150" as="geometry"/>
                </mxCell>
                <mxCell id="awvY_ZOCH91SfcmAsjb5-133" value="valid_proxies" style="text;strokeColor=none;fillColor=none;align=left;verticalAlign=middle;spacingLeft=4;spacingRight=4;overflow=hidden;points=[[0,0.5],[1,0.5]];portConstraint=eastwest;rotatable=0;whiteSpace=wrap;html=1;fontSize=12;labelBackgroundColor=none;fontColor=#000000;rounded=1;labelBorderColor=none;" parent="awvY_ZOCH91SfcmAsjb5-132" vertex="1">
                    <mxGeometry y="30" width="140" height="30" as="geometry"/>
                </mxCell>
                <mxCell id="awvY_ZOCH91SfcmAsjb5-134" value="bad_proxies" style="text;strokeColor=none;fillColor=none;align=left;verticalAlign=middle;spacingLeft=4;spacingRight=4;overflow=hidden;points=[[0,0.5],[1,0.5]];portConstraint=eastwest;rotatable=0;whiteSpace=wrap;html=1;fontSize=12;labelBackgroundColor=none;fontColor=#000000;rounded=1;labelBorderColor=none;" parent="awvY_ZOCH91SfcmAsjb5-132" vertex="1">
                    <mxGeometry y="60" width="140" height="30" as="geometry"/>
                </mxCell>
                <mxCell id="awvY_ZOCH91SfcmAsjb5-135" value="proxies_file" style="text;strokeColor=none;fillColor=none;align=left;verticalAlign=middle;spacingLeft=4;spacingRight=4;overflow=hidden;points=[[0,0.5],[1,0.5]];portConstraint=eastwest;rotatable=0;whiteSpace=wrap;html=1;fontSize=12;labelBackgroundColor=none;fontColor=#000000;rounded=1;labelBorderColor=none;" parent="awvY_ZOCH91SfcmAsjb5-132" vertex="1">
                    <mxGeometry y="90" width="140" height="30" as="geometry"/>
                </mxCell>
                <mxCell id="awvY_ZOCH91SfcmAsjb5-136" value="valid_proxies_file" style="text;strokeColor=none;fillColor=none;align=left;verticalAlign=middle;spacingLeft=4;spacingRight=4;overflow=hidden;points=[[0,0.5],[1,0.5]];portConstraint=eastwest;rotatable=0;whiteSpace=wrap;html=1;fontSize=12;labelBackgroundColor=none;fontColor=#000000;rounded=1;labelBorderColor=none;" parent="awvY_ZOCH91SfcmAsjb5-132" vertex="1">
                    <mxGeometry y="120" width="140" height="30" as="geometry"/>
                </mxCell>
                <mxCell id="kPXdXTe3XIWydvKljvxz-2" value="self.__check_pool = True" style="html=1;dashed=0;whitespace=wrap;fillStyle=auto;labelBackgroundColor=none;fillColor=#FAE5C7;strokeColor=#0F8B8D;fontColor=#000000;fontSize=12;rounded=1;labelBorderColor=none;" parent="1" vertex="1">
                    <mxGeometry x="-50" y="-170" width="160" height="30" as="geometry"/>
                </mxCell>
                <mxCell id="kPXdXTe3XIWydvKljvxz-4" value="run += 1" style="html=1;dashed=0;whitespace=wrap;strokeColor=#0F8B8D;fontColor=#000000;fillColor=#FAE5C7;labelBackgroundColor=none;fontSize=12;rounded=1;labelBorderColor=none;" parent="1" vertex="1">
                    <mxGeometry x="140" y="295" width="100" height="50" as="geometry"/>
                </mxCell>
                <mxCell id="kPXdXTe3XIWydvKljvxz-6" value="run = 0&lt;br style=&quot;font-size: 12px;&quot;&gt;self.__check_pool = False" style="html=1;dashed=0;whitespace=wrap;strokeColor=#0F8B8D;fontColor=#000000;fillColor=#FAE5C7;labelBackgroundColor=none;fontSize=12;rounded=1;labelBorderColor=none;" parent="1" vertex="1">
                    <mxGeometry x="-55" y="670" width="170" height="50" as="geometry"/>
                </mxCell>
                <mxCell id="kPXdXTe3XIWydvKljvxz-8" value="" style="endArrow=classic;html=1;rounded=1;strokeColor=#A8201A;fontSize=12;fontColor=#000000;fillColor=#FAE5C7;labelBackgroundColor=none;labelBorderColor=none;" parent="1" edge="1">
                    <mxGeometry width="50" height="50" relative="1" as="geometry">
                        <mxPoint x="460" y="320" as="sourcePoint"/>
                        <mxPoint x="460" y="580" as="targetPoint"/>
                    </mxGeometry>
                </mxCell>
                <mxCell id="kPXdXTe3XIWydvKljvxz-9" value="" style="endArrow=classic;html=1;rounded=1;strokeColor=#A8201A;fontSize=12;fontColor=#000000;fillColor=#FAE5C7;labelBackgroundColor=none;labelBorderColor=none;" parent="1" target="awvY_ZOCH91SfcmAsjb5-63" edge="1">
                    <mxGeometry width="50" height="50" relative="1" as="geometry">
                        <mxPoint x="460" y="580" as="sourcePoint"/>
                        <mxPoint x="780" y="440" as="targetPoint"/>
                    </mxGeometry>
                </mxCell>
                <mxCell id="kPXdXTe3XIWydvKljvxz-12" value="" style="endArrow=classic;html=1;rounded=1;strokeColor=#A8201A;fontSize=12;fontColor=#000000;fillColor=#FAE5C7;labelBackgroundColor=none;labelBorderColor=none;" parent="1" edge="1">
                    <mxGeometry width="50" height="50" relative="1" as="geometry">
                        <mxPoint x="860" y="360" as="sourcePoint"/>
                        <mxPoint x="860" y="750" as="targetPoint"/>
                    </mxGeometry>
                </mxCell>
                <mxCell id="kPXdXTe3XIWydvKljvxz-21" value="run+=1" style="text;html=1;strokeColor=none;fillColor=none;align=center;verticalAlign=middle;whiteSpace=wrap;rounded=1;fontSize=12;fontColor=#000000;rotation=-90;labelBackgroundColor=none;labelBorderColor=none;" parent="1" vertex="1">
                    <mxGeometry x="820" y="400" width="60" height="20" as="geometry"/>
                </mxCell>
                <mxCell id="awvY_ZOCH91SfcmAsjb5-85" value="" style="rounded=1;whiteSpace=wrap;html=1;fontSize=12;labelBackgroundColor=none;fillColor=#FAE5C7;strokeColor=#0F8B8D;fontColor=#000000;container=0;labelBorderColor=none;" parent="1" vertex="1">
                    <mxGeometry x="900" y="410" width="720" height="430" as="geometry"/>
                </mxCell>
                <mxCell id="awvY_ZOCH91SfcmAsjb5-86" value="run &amp;lt;= 2" style="rhombus;whiteSpace=wrap;html=1;fontSize=12;labelBackgroundColor=none;fillColor=#FAE5C7;strokeColor=#0F8B8D;fontColor=#000000;container=0;rounded=1;labelBorderColor=none;" parent="1" vertex="1">
                    <mxGeometry x="1010" y="680" width="140" height="140" as="geometry"/>
                </mxCell>
                <mxCell id="awvY_ZOCH91SfcmAsjb5-93" style="edgeStyle=none;curved=1;rounded=1;orthogonalLoop=1;jettySize=auto;html=1;exitX=0.5;exitY=0;exitDx=0;exitDy=0;entryX=0.5;entryY=1;entryDx=0;entryDy=0;fontSize=12;startSize=8;endSize=8;labelBackgroundColor=none;fontColor=#000000;strokeColor=#A8201A;labelBorderColor=none;" parent="1" source="awvY_ZOCH91SfcmAsjb5-86" target="awvY_ZOCH91SfcmAsjb5-90" edge="1">
                    <mxGeometry relative="1" as="geometry"/>
                </mxCell>
                <mxCell id="awvY_ZOCH91SfcmAsjb5-95" value="True" style="edgeLabel;html=1;align=center;verticalAlign=middle;resizable=0;points=[];fontSize=12;labelBackgroundColor=none;fontColor=#000000;container=0;rounded=1;labelBorderColor=none;" parent="awvY_ZOCH91SfcmAsjb5-93" connectable="0" vertex="1">
                    <mxGeometry relative="1" as="geometry">
                        <mxPoint as="offset"/>
                    </mxGeometry>
                </mxCell>
                <mxCell id="awvY_ZOCH91SfcmAsjb5-101" value="run &amp;lt;= 3" style="rhombus;whiteSpace=wrap;html=1;fontSize=12;labelBackgroundColor=none;fillColor=#FAE5C7;strokeColor=#0F8B8D;fontColor=#000000;container=0;rounded=1;labelBorderColor=none;" parent="1" vertex="1">
                    <mxGeometry x="1260" y="680" width="140" height="140" as="geometry"/>
                </mxCell>
                <mxCell id="awvY_ZOCH91SfcmAsjb5-97" style="edgeStyle=none;curved=1;rounded=1;orthogonalLoop=1;jettySize=auto;html=1;exitX=1;exitY=0.5;exitDx=0;exitDy=0;entryX=0;entryY=0.5;entryDx=0;entryDy=0;fontSize=12;startSize=8;endSize=8;labelBackgroundColor=none;fontColor=#000000;strokeColor=#A8201A;labelBorderColor=none;" parent="1" source="awvY_ZOCH91SfcmAsjb5-86" target="awvY_ZOCH91SfcmAsjb5-101" edge="1">
                    <mxGeometry relative="1" as="geometry"/>
                </mxCell>
                <mxCell id="awvY_ZOCH91SfcmAsjb5-98" value="False" style="edgeLabel;html=1;align=center;verticalAlign=middle;resizable=0;points=[];fontSize=12;labelBackgroundColor=none;fontColor=#000000;container=0;rounded=1;labelBorderColor=none;" parent="awvY_ZOCH91SfcmAsjb5-97" connectable="0" vertex="1">
                    <mxGeometry relative="1" as="geometry">
                        <mxPoint as="offset"/>
                    </mxGeometry>
                </mxCell>
                <mxCell id="awvY_ZOCH91SfcmAsjb5-99" style="edgeStyle=none;curved=1;rounded=1;orthogonalLoop=1;jettySize=auto;html=1;fontSize=12;startSize=8;endSize=8;exitX=0.5;exitY=0;exitDx=0;exitDy=0;labelBackgroundColor=none;fontColor=#000000;strokeColor=#A8201A;labelBorderColor=none;" parent="1" source="awvY_ZOCH91SfcmAsjb5-101" edge="1">
                    <mxGeometry relative="1" as="geometry">
                        <mxPoint x="1330" y="530" as="targetPoint"/>
                        <mxPoint x="870" y="1080" as="sourcePoint"/>
                    </mxGeometry>
                </mxCell>
                <mxCell id="awvY_ZOCH91SfcmAsjb5-103" value="True" style="edgeLabel;html=1;align=center;verticalAlign=middle;resizable=0;points=[];fontSize=12;labelBackgroundColor=none;fontColor=#000000;container=0;rounded=1;labelBorderColor=none;" parent="awvY_ZOCH91SfcmAsjb5-99" connectable="0" vertex="1">
                    <mxGeometry x="-0.1684" y="1" relative="1" as="geometry">
                        <mxPoint x="1" y="57" as="offset"/>
                    </mxGeometry>
                </mxCell>
                <mxCell id="awvY_ZOCH91SfcmAsjb5-111" value="delete_proxy_file()" style="rounded=1;whiteSpace=wrap;html=1;fontSize=12;labelBackgroundColor=none;fillColor=#FAE5C7;strokeColor=#0F8B8D;fontColor=#000000;container=0;labelBorderColor=none;" parent="1" vertex="1">
                    <mxGeometry x="1400" y="595" width="180" height="60" as="geometry"/>
                </mxCell>
                <mxCell id="awvY_ZOCH91SfcmAsjb5-121" style="edgeStyle=none;curved=1;rounded=1;orthogonalLoop=1;jettySize=auto;html=1;exitX=1;exitY=0.5;exitDx=0;exitDy=0;fontSize=12;startSize=8;endSize=8;labelBackgroundColor=none;fontColor=#000000;strokeColor=#A8201A;labelBorderColor=none;" parent="1" source="awvY_ZOCH91SfcmAsjb5-101" edge="1">
                    <mxGeometry relative="1" as="geometry">
                        <mxPoint x="1490" y="750" as="targetPoint"/>
                    </mxGeometry>
                </mxCell>
                <mxCell id="awvY_ZOCH91SfcmAsjb5-122" value="False" style="edgeLabel;html=1;align=center;verticalAlign=middle;resizable=0;points=[];fontSize=12;labelBackgroundColor=none;fontColor=#000000;container=0;rounded=1;labelBorderColor=none;" parent="awvY_ZOCH91SfcmAsjb5-121" connectable="0" vertex="1">
                    <mxGeometry relative="1" as="geometry">
                        <mxPoint as="offset"/>
                    </mxGeometry>
                </mxCell>
                <mxCell id="kPXdXTe3XIWydvKljvxz-7" value="self.__get_proxies(run)" style="text;html=1;strokeColor=none;fillColor=none;align=center;verticalAlign=middle;whiteSpace=wrap;rounded=1;fontColor=#000000;container=0;labelBackgroundColor=none;fontSize=12;labelBorderColor=none;" parent="1" vertex="1">
                    <mxGeometry x="925" y="410" width="150" height="30" as="geometry"/>
                </mxCell>
                <mxCell id="kPXdXTe3XIWydvKljvxz-13" value="own_ip=False" style="text;html=1;strokeColor=none;fillColor=none;align=center;verticalAlign=middle;whiteSpace=wrap;rounded=1;fontSize=12;fontColor=#000000;rotation=-90;container=0;labelBackgroundColor=none;labelBorderColor=none;" parent="1" vertex="1">
                    <mxGeometry x="1280" y="585" width="80" height="30" as="geometry"/>
                </mxCell>
                <mxCell id="kPXdXTe3XIWydvKljvxz-14" value="own_ip=True" style="text;html=1;strokeColor=none;fillColor=none;align=center;verticalAlign=middle;whiteSpace=wrap;rounded=1;fontSize=12;fontColor=#000000;container=0;labelBackgroundColor=none;labelBorderColor=none;" parent="1" vertex="1">
                    <mxGeometry x="1230" y="510" width="80" height="30" as="geometry"/>
                </mxCell>
                <mxCell id="awvY_ZOCH91SfcmAsjb5-88" value="read&lt;br style=&quot;font-size: 12px;&quot;&gt;_proxy_file()" style="rounded=1;whiteSpace=wrap;html=1;fontSize=12;movable=1;resizable=1;rotatable=1;deletable=1;editable=1;locked=0;connectable=1;labelBackgroundColor=none;fillColor=#FAE5C7;strokeColor=#0F8B8D;fontColor=#000000;container=0;labelBorderColor=none;" parent="1" vertex="1">
                    <mxGeometry x="940" y="460" width="280" height="140" as="geometry"/>
                </mxCell>
                <mxCell id="awvY_ZOCH91SfcmAsjb5-91" style="edgeStyle=none;curved=1;rounded=1;orthogonalLoop=1;jettySize=auto;html=1;exitX=0.5;exitY=0;exitDx=0;exitDy=0;fontSize=12;startSize=8;endSize=8;labelBackgroundColor=none;fontColor=#000000;strokeColor=#A8201A;labelBorderColor=none;" parent="1" source="awvY_ZOCH91SfcmAsjb5-90" edge="1">
                    <mxGeometry relative="1" as="geometry">
                        <mxPoint x="1080" y="-70" as="targetPoint"/>
                    </mxGeometry>
                </mxCell>
                <mxCell id="awvY_ZOCH91SfcmAsjb5-120" value="True" style="edgeLabel;html=1;align=center;verticalAlign=middle;resizable=0;points=[];fontSize=12;labelBackgroundColor=none;fontColor=#000000;container=0;rounded=1;labelBorderColor=none;" parent="awvY_ZOCH91SfcmAsjb5-91" connectable="0" vertex="1">
                    <mxGeometry relative="1" as="geometry">
                        <mxPoint as="offset"/>
                    </mxGeometry>
                </mxCell>
                <mxCell id="awvY_ZOCH91SfcmAsjb5-90" value="" style="rhombus;whiteSpace=wrap;html=1;fontSize=12;movable=1;resizable=1;rotatable=1;deletable=1;editable=1;locked=0;connectable=1;fillColor=none;labelBackgroundColor=none;strokeColor=#0F8B8D;fontColor=#000000;container=0;rounded=1;labelBorderColor=none;" parent="1" vertex="1">
                    <mxGeometry x="1010" y="460" width="140" height="140" as="geometry"/>
                </mxCell>
                <mxCell id="awvY_ZOCH91SfcmAsjb5-94" style="edgeStyle=none;curved=1;rounded=1;orthogonalLoop=1;jettySize=auto;html=1;exitX=1;exitY=0.5;exitDx=0;exitDy=0;entryX=0;entryY=0.5;entryDx=0;entryDy=0;fontSize=12;startSize=8;endSize=8;labelBackgroundColor=none;fontColor=#000000;strokeColor=#A8201A;labelBorderColor=none;" parent="1" source="awvY_ZOCH91SfcmAsjb5-67" target="awvY_ZOCH91SfcmAsjb5-86" edge="1">
                    <mxGeometry relative="1" as="geometry">
                        <mxPoint x="860" y="730" as="sourcePoint"/>
                    </mxGeometry>
                </mxCell>
                <mxCell id="kPXdXTe3XIWydvKljvxz-23" value="-&amp;gt; self.__unchecked_proxies" style="text;html=1;strokeColor=none;fillColor=none;align=center;verticalAlign=middle;whiteSpace=wrap;rounded=1;fontSize=12;fontColor=#000000;labelBackgroundColor=none;labelBorderColor=none;" parent="1" vertex="1">
                    <mxGeometry x="1060" y="580" width="160" height="20" as="geometry"/>
                </mxCell>
                <mxCell id="awvY_ZOCH91SfcmAsjb5-89" style="edgeStyle=none;curved=1;rounded=1;orthogonalLoop=1;jettySize=auto;html=1;exitX=1;exitY=0.5;exitDx=0;exitDy=0;fontSize=12;startSize=8;endSize=8;labelBackgroundColor=none;fontColor=#000000;strokeColor=#A8201A;labelBorderColor=none;" parent="1" source="awvY_ZOCH91SfcmAsjb5-90" edge="1">
                    <mxGeometry relative="1" as="geometry">
                        <mxPoint x="1490" y="530" as="targetPoint"/>
                    </mxGeometry>
                </mxCell>
                <mxCell id="awvY_ZOCH91SfcmAsjb5-123" value="False" style="edgeLabel;html=1;align=center;verticalAlign=middle;resizable=0;points=[];fontSize=12;labelBackgroundColor=none;fontColor=#000000;container=0;rounded=1;labelBorderColor=none;" parent="awvY_ZOCH91SfcmAsjb5-89" connectable="0" vertex="1">
                    <mxGeometry relative="1" as="geometry">
                        <mxPoint x="-155" y="-5" as="offset"/>
                    </mxGeometry>
                </mxCell>
                <mxCell id="kPXdXTe3XIWydvKljvxz-24" value="self.__valid_proxies = []" style="text;html=1;strokeColor=none;fillColor=none;align=center;verticalAlign=middle;whiteSpace=wrap;rounded=1;fontSize=12;fontColor=#000000;labelBackgroundColor=none;labelBorderColor=none;" parent="1" vertex="1">
                    <mxGeometry x="830" y="750" width="140" height="20" as="geometry"/>
                </mxCell>
                <mxCell id="kPXdXTe3XIWydvKljvxz-26" value="" style="rounded=1;whiteSpace=wrap;html=1;fontSize=12;labelBackgroundColor=none;fillColor=#FAE5C7;strokeColor=#0F8B8D;fontColor=#000000;container=0;labelBorderColor=none;" parent="1" vertex="1">
                    <mxGeometry x="1170" y="-20" width="620" height="380" as="geometry"/>
                </mxCell>
                <mxCell id="kPXdXTe3XIWydvKljvxz-27" value="self.__get_proxies_from_web(own_ip=False)" style="text;html=1;strokeColor=none;fillColor=none;align=center;verticalAlign=middle;whiteSpace=wrap;rounded=1;fontColor=#000000;fontSize=12;labelBorderColor=none;" parent="1" vertex="1">
                    <mxGeometry x="1230" y="-20" width="250" height="20" as="geometry"/>
                </mxCell>
                <mxCell id="kPXdXTe3XIWydvKljvxz-28" value="" style="endArrow=classic;html=1;rounded=1;strokeColor=#A8201A;fontSize=12;fontColor=#000000;fillColor=#FAE5C7;entryX=0.5;entryY=1;entryDx=0;entryDy=0;labelBorderColor=none;" parent="1" target="awvY_ZOCH91SfcmAsjb5-111" edge="1">
                    <mxGeometry width="50" height="50" relative="1" as="geometry">
                        <mxPoint x="1490" y="750" as="sourcePoint"/>
                        <mxPoint x="1250" y="410" as="targetPoint"/>
                    </mxGeometry>
                </mxCell>
                <mxCell id="kPXdXTe3XIWydvKljvxz-30" value="proxies = []" style="rounded=1;whiteSpace=wrap;html=1;strokeColor=#0F8B8D;fontSize=12;fontColor=#000000;fillColor=#FAE5C7;labelBorderColor=none;" parent="1" vertex="1">
                    <mxGeometry x="1435" y="312.5" width="110" height="25" as="geometry"/>
                </mxCell>
                <mxCell id="kPXdXTe3XIWydvKljvxz-32" value="if own_ip:" style="rhombus;whiteSpace=wrap;html=1;strokeColor=#0F8B8D;fontSize=12;fontColor=#000000;fillColor=#FAE5C7;rounded=1;labelBorderColor=none;" parent="1" vertex="1">
                    <mxGeometry x="1450" y="210" width="80" height="80" as="geometry"/>
                </mxCell>
                <mxCell id="kPXdXTe3XIWydvKljvxz-33" value="" style="endArrow=classic;html=1;rounded=1;strokeColor=#A8201A;fontSize=12;fontColor=#000000;fillColor=#FAE5C7;entryX=0.5;entryY=1;entryDx=0;entryDy=0;exitX=0.5;exitY=0;exitDx=0;exitDy=0;labelBorderColor=none;" parent="1" source="kPXdXTe3XIWydvKljvxz-30" target="kPXdXTe3XIWydvKljvxz-32" edge="1">
                    <mxGeometry width="50" height="50" relative="1" as="geometry">
                        <mxPoint x="1180" y="240" as="sourcePoint"/>
                        <mxPoint x="1230" y="190" as="targetPoint"/>
                    </mxGeometry>
                </mxCell>
                <mxCell id="kPXdXTe3XIWydvKljvxz-36" value="" style="group;rounded=1;fontColor=#000000;labelBorderColor=none;" parent="1" vertex="1" connectable="0">
                    <mxGeometry x="1580" y="215" width="130" height="70" as="geometry"/>
                </mxCell>
                <mxCell id="kPXdXTe3XIWydvKljvxz-34" value="" style="shape=parallelogram;perimeter=parallelogramPerimeter;whiteSpace=wrap;html=1;dashed=0;strokeColor=#0F8B8D;fontSize=12;fontColor=#000000;fillColor=#FAE5C7;rounded=1;labelBorderColor=none;" parent="kPXdXTe3XIWydvKljvxz-36" vertex="1">
                    <mxGeometry width="130" height="70" as="geometry"/>
                </mxCell>
                <mxCell id="kPXdXTe3XIWydvKljvxz-35" value="user confirm" style="rhombus;whiteSpace=wrap;html=1;strokeColor=#0F8B8D;fontSize=12;fontColor=#000000;fillColor=#FAE5C7;rounded=1;labelBorderColor=none;" parent="kPXdXTe3XIWydvKljvxz-36" vertex="1">
                    <mxGeometry x="32.5" width="65" height="70" as="geometry"/>
                </mxCell>
                <mxCell id="kPXdXTe3XIWydvKljvxz-37" value="" style="endArrow=classic;html=1;rounded=1;strokeColor=#A8201A;fontSize=12;fontColor=#000000;fillColor=#FAE5C7;exitX=1;exitY=0.5;exitDx=0;exitDy=0;entryX=0;entryY=0.5;entryDx=0;entryDy=0;labelBorderColor=none;" parent="1" source="kPXdXTe3XIWydvKljvxz-32" target="kPXdXTe3XIWydvKljvxz-35" edge="1">
                    <mxGeometry width="50" height="50" relative="1" as="geometry">
                        <mxPoint x="1180" y="230" as="sourcePoint"/>
                        <mxPoint x="1230" y="180" as="targetPoint"/>
                    </mxGeometry>
                </mxCell>
                <mxCell id="kPXdXTe3XIWydvKljvxz-38" value="True" style="edgeLabel;html=1;align=center;verticalAlign=middle;resizable=0;points=[];fontSize=12;fontColor=#000000;labelBackgroundColor=#fae5c7;rounded=1;labelBorderColor=none;" parent="kPXdXTe3XIWydvKljvxz-37" vertex="1" connectable="0">
                    <mxGeometry x="-0.3333" relative="1" as="geometry">
                        <mxPoint as="offset"/>
                    </mxGeometry>
                </mxCell>
                <mxCell id="kPXdXTe3XIWydvKljvxz-39" value="" style="endArrow=classic;html=1;rounded=1;strokeColor=#A8201A;fontSize=12;fontColor=#000000;fillColor=#FAE5C7;exitX=1;exitY=0.5;exitDx=0;exitDy=0;startArrow=none;labelBorderColor=none;" parent="1" source="kPXdXTe3XIWydvKljvxz-41" edge="1">
                    <mxGeometry width="50" height="50" relative="1" as="geometry">
                        <mxPoint x="1180" y="230" as="sourcePoint"/>
                        <mxPoint x="1890" y="250" as="targetPoint"/>
                    </mxGeometry>
                </mxCell>
                <mxCell id="kPXdXTe3XIWydvKljvxz-42" value="" style="endArrow=none;html=1;rounded=1;strokeColor=#A8201A;fontSize=12;fontColor=#000000;fillColor=#FAE5C7;exitX=1;exitY=0.5;exitDx=0;exitDy=0;labelBorderColor=none;" parent="1" source="kPXdXTe3XIWydvKljvxz-35" target="kPXdXTe3XIWydvKljvxz-41" edge="1">
                    <mxGeometry width="50" height="50" relative="1" as="geometry">
                        <mxPoint x="1667.5" y="100" as="sourcePoint"/>
                        <mxPoint x="1870" y="100" as="targetPoint"/>
                    </mxGeometry>
                </mxCell>
                <mxCell id="kPXdXTe3XIWydvKljvxz-41" value="False" style="rounded=1;whiteSpace=wrap;html=1;labelBackgroundColor=#fae5c7;strokeColor=#0F8B8D;fontSize=12;fontColor=#000000;fillColor=#FAE5C7;labelBorderColor=none;" parent="1" vertex="1">
                    <mxGeometry x="1730" y="240" width="40" height="20" as="geometry"/>
                </mxCell>
                <mxCell id="awvY_ZOCH91SfcmAsjb5-119" style="edgeStyle=none;curved=1;rounded=1;orthogonalLoop=1;jettySize=auto;html=1;exitX=0.5;exitY=0;exitDx=0;exitDy=0;fontSize=12;startSize=8;endSize=8;labelBackgroundColor=none;fontColor=#000000;strokeColor=#A8201A;entryX=0.5;entryY=1;entryDx=0;entryDy=0;labelBorderColor=none;" parent="1" source="awvY_ZOCH91SfcmAsjb5-111" target="kPXdXTe3XIWydvKljvxz-30" edge="1">
                    <mxGeometry relative="1" as="geometry">
                        <mxPoint x="1490" y="360" as="targetPoint"/>
                    </mxGeometry>
                </mxCell>
                <mxCell id="kPXdXTe3XIWydvKljvxz-44" value="" style="endArrow=classic;html=1;rounded=1;strokeColor=#A8201A;fontSize=12;fontColor=#000000;fillColor=#FAE5C7;exitX=0.5;exitY=0;exitDx=0;exitDy=0;labelBorderColor=none;" parent="1" source="kPXdXTe3XIWydvKljvxz-32" edge="1">
                    <mxGeometry width="50" height="50" relative="1" as="geometry">
                        <mxPoint x="1250" y="250" as="sourcePoint"/>
                        <mxPoint x="1485" y="-500" as="targetPoint"/>
                    </mxGeometry>
                </mxCell>
                <mxCell id="kPXdXTe3XIWydvKljvxz-45" value="" style="endArrow=classic;html=1;rounded=1;strokeColor=#A8201A;fontSize=12;fontColor=#000000;fillColor=#FAE5C7;exitX=0.5;exitY=0;exitDx=0;exitDy=0;labelBorderColor=none;" parent="1" source="kPXdXTe3XIWydvKljvxz-34" edge="1">
                    <mxGeometry width="50" height="50" relative="1" as="geometry">
                        <mxPoint x="1250" y="250" as="sourcePoint"/>
                        <mxPoint x="1645" y="190" as="targetPoint"/>
                    </mxGeometry>
                </mxCell>
                <mxCell id="kPXdXTe3XIWydvKljvxz-46" value="" style="endArrow=classic;html=1;rounded=1;strokeColor=#A8201A;fontSize=12;fontColor=#000000;fillColor=#FAE5C7;labelBorderColor=none;" parent="1" edge="1">
                    <mxGeometry width="50" height="50" relative="1" as="geometry">
                        <mxPoint x="1645" y="190" as="sourcePoint"/>
                        <mxPoint x="1490" y="190" as="targetPoint"/>
                    </mxGeometry>
                </mxCell>
                <mxCell id="kPXdXTe3XIWydvKljvxz-48" value="True" style="text;html=1;strokeColor=none;fillColor=none;align=center;verticalAlign=middle;whiteSpace=wrap;rounded=1;fontSize=12;fontColor=#000000;labelBorderColor=none;" parent="1" vertex="1">
                    <mxGeometry x="1600" y="175" width="35" height="15" as="geometry"/>
                </mxCell>
                <mxCell id="kPXdXTe3XIWydvKljvxz-50" value="False" style="text;html=1;strokeColor=none;fillColor=none;align=center;verticalAlign=middle;whiteSpace=wrap;rounded=1;fontSize=12;fontColor=#000000;rotation=-90;labelBorderColor=none;" parent="1" vertex="1">
                    <mxGeometry x="1465" y="180" width="40" height="15" as="geometry"/>
                </mxCell>
                <mxCell id="kPXdXTe3XIWydvKljvxz-51" value="exit()" style="text;html=1;strokeColor=none;fillColor=none;align=center;verticalAlign=middle;whiteSpace=wrap;rounded=1;fontSize=12;fontColor=#000000;labelBorderColor=none;" parent="1" vertex="1">
                    <mxGeometry x="1820" y="235" width="45" height="17.5" as="geometry"/>
                </mxCell>
                <mxCell id="kPXdXTe3XIWydvKljvxz-52" value="self.__valid_proxies = self.__unchecked_proxies" style="text;html=1;strokeColor=none;fillColor=none;align=center;verticalAlign=middle;whiteSpace=wrap;rounded=1;fontSize=12;fontColor=#000000;rotation=-90;labelBorderColor=none;" parent="1" vertex="1">
                    <mxGeometry x="1275" y="590" width="145" height="30" as="geometry"/>
                </mxCell>
                <mxCell id="kPXdXTe3XIWydvKljvxz-53" value="self.__bad_proxies = 0" style="text;html=1;strokeColor=none;fillColor=none;align=center;verticalAlign=middle;whiteSpace=wrap;rounded=1;fontSize=12;fontColor=#000000;labelBorderColor=none;" parent="1" vertex="1">
                    <mxGeometry x="235" y="300" width="145" height="30" as="geometry"/>
                </mxCell>
                <mxCell id="3" value="self.rotating_requests(url, proxies=True, timeout=None)" style="text;html=1;strokeColor=none;fillColor=none;align=center;verticalAlign=middle;whiteSpace=wrap;rounded=1;fontColor=#000000;labelBorderColor=none;" vertex="1" parent="1">
                    <mxGeometry x="-1305" y="-440" width="330" height="30" as="geometry"/>
                </mxCell>
                <mxCell id="5" value="" style="edgeStyle=none;curved=1;rounded=1;orthogonalLoop=1;jettySize=auto;html=1;exitX=0.5;exitY=1;exitDx=0;exitDy=0;entryX=0.5;entryY=0;entryDx=0;entryDy=0;fontSize=12;startSize=8;endSize=8;labelBackgroundColor=none;fontColor=#000000;strokeColor=#A8201A;endArrow=none;labelBorderColor=none;" edge="1" parent="1" source="awvY_ZOCH91SfcmAsjb5-4" target="4">
                    <mxGeometry relative="1" as="geometry">
                        <mxPoint x="30" y="-170" as="targetPoint"/>
                        <mxPoint x="25" y="-730" as="sourcePoint"/>
                    </mxGeometry>
                </mxCell>
                <mxCell id="9" style="edgeStyle=none;html=1;exitX=0;exitY=0.5;exitDx=0;exitDy=0;strokeColor=#741e1d;rounded=1;fontColor=#000000;labelBorderColor=none;" edge="1" parent="1" source="4">
                    <mxGeometry relative="1" as="geometry">
                        <mxPoint x="-520" y="-344" as="targetPoint"/>
                    </mxGeometry>
                </mxCell>
                <mxCell id="10" value="True" style="edgeLabel;html=1;align=center;verticalAlign=middle;resizable=0;points=[];rounded=1;fontColor=#000000;labelBorderColor=none;labelBackgroundColor=#fae5c7;" vertex="1" connectable="0" parent="9">
                    <mxGeometry x="-0.6177" y="-2" relative="1" as="geometry">
                        <mxPoint x="-14" y="2" as="offset"/>
                    </mxGeometry>
                </mxCell>
                <mxCell id="4" value="self.__check_pool" style="rhombus;whiteSpace=wrap;html=1;rounded=1;fontColor=#000000;labelBorderColor=none;labelBackgroundColor=#fae5c7;strokeColor=#0F8B8D;fillColor=#fae5c7;" vertex="1" parent="1">
                    <mxGeometry x="-40" y="-414" width="140" height="140" as="geometry"/>
                </mxCell>
                <mxCell id="7" value="" style="endArrow=classic;html=1;strokeColor=#741e1d;rounded=1;fontColor=#000000;labelBorderColor=none;" edge="1" parent="1">
                    <mxGeometry width="50" height="50" relative="1" as="geometry">
                        <mxPoint x="1485" y="-500" as="sourcePoint"/>
                        <mxPoint x="30" y="-500" as="targetPoint"/>
                    </mxGeometry>
                </mxCell>
                <mxCell id="27" value="" style="endArrow=none;html=1;strokeColor=#741e1d;movable=1;resizable=1;rotatable=1;deletable=1;editable=1;connectable=1;rounded=1;fontColor=#000000;labelBorderColor=none;" edge="1" parent="1">
                    <mxGeometry width="50" height="50" relative="1" as="geometry">
                        <mxPoint x="440" y="300.0611620795112" as="sourcePoint"/>
                        <mxPoint x="440" y="309.9388379204893" as="targetPoint"/>
                    </mxGeometry>
                </mxCell>
                <mxCell id="62" value="" style="endArrow=classic;html=1;strokeColor=#741e1d;rounded=1;fontColor=#000000;labelBorderColor=none;" edge="1" parent="1">
                    <mxGeometry width="50" height="50" relative="1" as="geometry">
                        <mxPoint x="28" y="844" as="sourcePoint"/>
                        <mxPoint x="-384" y="842" as="targetPoint"/>
                    </mxGeometry>
                </mxCell>
                <mxCell id="63" value="" style="endArrow=classic;html=1;strokeColor=#741e1d;rounded=1;fontColor=#000000;labelBorderColor=none;" edge="1" parent="1">
                    <mxGeometry width="50" height="50" relative="1" as="geometry">
                        <mxPoint x="-384" y="842" as="sourcePoint"/>
                        <mxPoint x="-386" y="-272" as="targetPoint"/>
                    </mxGeometry>
                </mxCell>
                <mxCell id="64" value="" style="endArrow=classic;html=1;strokeColor=#741e1d;rounded=1;fontColor=#000000;labelBorderColor=none;" edge="1" parent="1">
                    <mxGeometry width="50" height="50" relative="1" as="geometry">
                        <mxPoint x="-386" y="-272" as="sourcePoint"/>
                        <mxPoint x="-520" y="-272" as="targetPoint"/>
                    </mxGeometry>
                </mxCell>
                <mxCell id="65" value="" style="endArrow=classic;html=1;strokeColor=#741e1d;exitX=1;exitY=0.5;exitDx=0;exitDy=0;rounded=1;fontColor=#000000;labelBorderColor=none;" edge="1" parent="1" source="8">
                    <mxGeometry width="50" height="50" relative="1" as="geometry">
                        <mxPoint x="-370" y="184" as="sourcePoint"/>
                        <mxPoint x="-410" y="-114" as="targetPoint"/>
                    </mxGeometry>
                </mxCell>
                <mxCell id="66" value="True" style="edgeLabel;html=1;align=center;verticalAlign=middle;resizable=0;points=[];rounded=1;fontColor=#000000;labelBorderColor=none;labelBackgroundColor=#fae5c7;" vertex="1" connectable="0" parent="65">
                    <mxGeometry x="-0.1593" y="-1" relative="1" as="geometry">
                        <mxPoint as="offset"/>
                    </mxGeometry>
                </mxCell>
                <mxCell id="68" value="" style="endArrow=classic;html=1;strokeColor=#741e1d;entryX=0.5;entryY=0;entryDx=0;entryDy=0;rounded=1;fontColor=#000000;labelBorderColor=none;" edge="1" parent="1" target="67">
                    <mxGeometry width="50" height="50" relative="1" as="geometry">
                        <mxPoint x="-410" y="-114" as="sourcePoint"/>
                        <mxPoint x="-410" y="709.142810639881" as="targetPoint"/>
                    </mxGeometry>
                </mxCell>
                <mxCell id="67" value="return False" style="rounded=1;whiteSpace=wrap;html=1;fillColor=none;fontColor=#000000;labelBorderColor=none;strokeColor=#0000FF;" vertex="1" parent="1">
                    <mxGeometry x="-470" y="880" width="120" height="60" as="geometry"/>
                </mxCell>
                <mxCell id="79" style="edgeStyle=none;html=1;exitX=0.5;exitY=1;exitDx=0;exitDy=0;entryX=0.5;entryY=0;entryDx=0;entryDy=0;strokeColor=#741e1d;endArrow=classic;endFill=1;rounded=1;fontColor=#000000;labelBorderColor=none;" edge="1" parent="1" source="73" target="78">
                    <mxGeometry relative="1" as="geometry"/>
                </mxCell>
                <mxCell id="80" value="False" style="edgeLabel;html=1;align=center;verticalAlign=middle;resizable=0;points=[];rounded=1;fontColor=#000000;labelBorderColor=none;labelBackgroundColor=#fae5c7;" vertex="1" connectable="0" parent="79">
                    <mxGeometry x="-0.359" y="2" relative="1" as="geometry">
                        <mxPoint as="offset"/>
                    </mxGeometry>
                </mxCell>
                <mxCell id="11" style="edgeStyle=none;html=1;exitX=0.5;exitY=0;exitDx=0;exitDy=0;strokeColor=#741e1d;entryX=0.5;entryY=0;entryDx=0;entryDy=0;rounded=1;fontColor=#000000;labelBorderColor=none;" edge="1" parent="1" target="8">
                    <mxGeometry relative="1" as="geometry">
                        <mxPoint x="-520" y="-344" as="sourcePoint"/>
                    </mxGeometry>
                </mxCell>
                <mxCell id="8" value="self.__bad_proxies &amp;gt;&lt;br&gt;len(self.__valid_proxies)" style="rhombus;whiteSpace=wrap;html=1;rounded=1;fontColor=#000000;labelBorderColor=none;strokeColor=#0F8B8D;fillColor=#fae5c7;" vertex="1" parent="1">
                    <mxGeometry x="-589" y="-184" width="140" height="140" as="geometry"/>
                </mxCell>
                <mxCell id="13" style="edgeStyle=none;html=1;exitX=0.5;exitY=1;exitDx=0;exitDy=0;strokeColor=#741e1d;entryX=0.5;entryY=0;entryDx=0;entryDy=0;rounded=1;fontColor=#000000;labelBorderColor=none;" edge="1" parent="1" source="8" target="15">
                    <mxGeometry relative="1" as="geometry"/>
                </mxCell>
                <mxCell id="14" value="False" style="edgeLabel;html=1;align=center;verticalAlign=middle;resizable=0;points=[];rounded=1;fontColor=#000000;labelBorderColor=none;labelBackgroundColor=#fae5c7;" vertex="1" connectable="0" parent="13">
                    <mxGeometry x="0.4603" y="-1" relative="1" as="geometry">
                        <mxPoint x="1" y="-17" as="offset"/>
                    </mxGeometry>
                </mxCell>
                <mxCell id="15" value="if proxy:" style="rhombus;whiteSpace=wrap;html=1;rounded=1;fontColor=#000000;labelBorderColor=none;strokeColor=#0F8B8D;fillColor=#fae5c7;" vertex="1" parent="1">
                    <mxGeometry x="-589" y="10" width="140" height="140" as="geometry"/>
                </mxCell>
                <mxCell id="17" style="edgeStyle=none;html=1;exitX=0;exitY=0.5;exitDx=0;exitDy=0;entryX=1;entryY=0.5;entryDx=0;entryDy=0;strokeColor=#741e1d;rounded=1;fontColor=#000000;labelBorderColor=none;" edge="1" parent="1" source="15" target="16">
                    <mxGeometry relative="1" as="geometry"/>
                </mxCell>
                <mxCell id="18" value="True" style="edgeLabel;html=1;align=center;verticalAlign=middle;resizable=0;points=[];rounded=1;fontColor=#000000;labelBorderColor=none;labelBackgroundColor=#fae5c7;" vertex="1" connectable="0" parent="17">
                    <mxGeometry x="-0.3858" y="-1" relative="1" as="geometry">
                        <mxPoint x="-8" y="1" as="offset"/>
                    </mxGeometry>
                </mxCell>
                <mxCell id="40" style="edgeStyle=none;html=1;exitX=0.5;exitY=1;exitDx=0;exitDy=0;strokeColor=#741e1d;rounded=1;fontColor=#000000;labelBorderColor=none;" edge="1" parent="1" source="36">
                    <mxGeometry relative="1" as="geometry">
                        <mxPoint x="-519" y="299" as="targetPoint"/>
                    </mxGeometry>
                </mxCell>
                <mxCell id="36" value="proxies = None" style="rounded=1;whiteSpace=wrap;html=1;fillColor=none;fontColor=#000000;labelBorderColor=none;strokeColor=#0F8B8D;" vertex="1" parent="1">
                    <mxGeometry x="-579" y="200" width="120" height="60" as="geometry"/>
                </mxCell>
                <mxCell id="37" style="edgeStyle=none;html=1;exitX=0.5;exitY=1;exitDx=0;exitDy=0;entryX=0.5;entryY=0;entryDx=0;entryDy=0;strokeColor=#741e1d;rounded=1;fontColor=#000000;labelBorderColor=none;" edge="1" parent="1" source="15" target="36">
                    <mxGeometry relative="1" as="geometry"/>
                </mxCell>
                <mxCell id="38" value="False" style="edgeLabel;html=1;align=center;verticalAlign=middle;resizable=0;points=[];rounded=1;fontColor=#000000;labelBorderColor=none;labelBackgroundColor=#fae5c7;" vertex="1" connectable="0" parent="37">
                    <mxGeometry x="-0.4063" y="2" relative="1" as="geometry">
                        <mxPoint x="-2" y="5" as="offset"/>
                    </mxGeometry>
                </mxCell>
                <mxCell id="41" style="edgeStyle=none;html=1;exitX=0.5;exitY=1;exitDx=0;exitDy=0;strokeColor=#741e1d;rounded=1;fontColor=#000000;labelBorderColor=none;" edge="1" parent="1" source="23">
                    <mxGeometry relative="1" as="geometry">
                        <mxPoint x="-847" y="299" as="targetPoint"/>
                    </mxGeometry>
                </mxCell>
                <mxCell id="42" value="" style="endArrow=none;html=1;strokeColor=#741e1d;endFill=0;rounded=1;fontColor=#000000;labelBorderColor=none;" edge="1" parent="1">
                    <mxGeometry width="50" height="50" relative="1" as="geometry">
                        <mxPoint x="-847" y="299.79" as="sourcePoint"/>
                        <mxPoint x="-519" y="299.79" as="targetPoint"/>
                    </mxGeometry>
                </mxCell>
                <mxCell id="58" value="" style="endArrow=classic;html=1;strokeColor=#741e1d;entryX=0.5;entryY=0;entryDx=0;entryDy=0;rounded=1;fontColor=#000000;labelBorderColor=none;" edge="1" parent="1" target="39">
                    <mxGeometry width="50" height="50" relative="1" as="geometry">
                        <mxPoint x="-685" y="299" as="sourcePoint"/>
                        <mxPoint x="-683" y="347" as="targetPoint"/>
                    </mxGeometry>
                </mxCell>
                <mxCell id="51" value="try:" style="text;html=1;strokeColor=none;fillColor=none;align=center;verticalAlign=middle;whiteSpace=wrap;rounded=1;fontColor=#000000;labelBorderColor=none;" vertex="1" parent="1">
                    <mxGeometry x="-895" y="329" width="32" height="16" as="geometry"/>
                </mxCell>
                <mxCell id="46" style="edgeStyle=none;html=1;exitX=0.5;exitY=1;exitDx=0;exitDy=0;strokeColor=#741e1d;rounded=1;fontColor=#000000;labelBorderColor=none;" edge="1" parent="1" source="39">
                    <mxGeometry relative="1" as="geometry">
                        <mxPoint x="-685" y="519" as="targetPoint"/>
                    </mxGeometry>
                </mxCell>
                <mxCell id="49" value="False" style="edgeLabel;html=1;align=center;verticalAlign=middle;resizable=0;points=[];rounded=1;fontColor=#000000;labelBorderColor=none;labelBackgroundColor=#fae5c7;" vertex="1" connectable="0" parent="46">
                    <mxGeometry x="-0.73" y="1" relative="1" as="geometry">
                        <mxPoint x="-1" y="8" as="offset"/>
                    </mxGeometry>
                </mxCell>
                <mxCell id="39" value="if not timeout:" style="rhombus;whiteSpace=wrap;html=1;fillColor=none;rounded=1;fontColor=#000000;labelBorderColor=none;strokeColor=#0F8B8D;" vertex="1" parent="1">
                    <mxGeometry x="-755" y="347" width="140" height="140" as="geometry"/>
                </mxCell>
                <mxCell id="47" style="edgeStyle=none;html=1;exitX=0.5;exitY=1;exitDx=0;exitDy=0;strokeColor=#741e1d;rounded=1;fontColor=#000000;labelBorderColor=none;" edge="1" parent="1" source="43">
                    <mxGeometry relative="1" as="geometry">
                        <mxPoint x="-867.0740740740741" y="519" as="targetPoint"/>
                    </mxGeometry>
                </mxCell>
                <mxCell id="43" value="timeout = self.__start_timeout" style="rounded=1;whiteSpace=wrap;html=1;fillColor=none;fontColor=#000000;labelBorderColor=none;strokeColor=#0F8B8D;" vertex="1" parent="1">
                    <mxGeometry x="-927" y="387" width="120" height="60" as="geometry"/>
                </mxCell>
                <mxCell id="44" style="edgeStyle=none;html=1;exitX=0;exitY=0.5;exitDx=0;exitDy=0;entryX=1;entryY=0.5;entryDx=0;entryDy=0;strokeColor=#741e1d;rounded=1;fontColor=#000000;labelBorderColor=none;" edge="1" parent="1" source="39" target="43">
                    <mxGeometry relative="1" as="geometry"/>
                </mxCell>
                <mxCell id="45" value="True" style="edgeLabel;html=1;align=center;verticalAlign=middle;resizable=0;points=[];rounded=1;fontColor=#000000;labelBorderColor=none;labelBackgroundColor=#fae5c7;" vertex="1" connectable="0" parent="44">
                    <mxGeometry x="-0.3121" relative="1" as="geometry">
                        <mxPoint as="offset"/>
                    </mxGeometry>
                </mxCell>
                <mxCell id="48" value="" style="endArrow=none;html=1;strokeColor=#741e1d;endFill=0;rounded=1;fontColor=#000000;labelBorderColor=none;" edge="1" parent="1">
                    <mxGeometry width="50" height="50" relative="1" as="geometry">
                        <mxPoint x="-867" y="519" as="sourcePoint"/>
                        <mxPoint x="-685" y="519" as="targetPoint"/>
                    </mxGeometry>
                </mxCell>
                <mxCell id="52" value="self.__request_counter &lt;br&gt;+= 1" style="rounded=1;whiteSpace=wrap;html=1;fillColor=none;fontColor=#000000;labelBorderColor=none;strokeColor=#0000FF;" vertex="1" parent="1">
                    <mxGeometry x="-850" y="552.5" width="152" height="60" as="geometry"/>
                </mxCell>
                <mxCell id="53" value="" style="endArrow=classic;html=1;strokeColor=#741e1d;entryX=0.5;entryY=0;entryDx=0;entryDy=0;rounded=1;fontColor=#000000;labelBorderColor=none;" edge="1" parent="1" target="52">
                    <mxGeometry width="50" height="50" relative="1" as="geometry">
                        <mxPoint x="-774" y="519" as="sourcePoint"/>
                        <mxPoint x="-760" y="599" as="targetPoint"/>
                    </mxGeometry>
                </mxCell>
                <mxCell id="54" value="response = requests.get(url, proxies=proxies, headers={...}, timeout=timeout[0])" style="rounded=1;whiteSpace=wrap;html=1;fillColor=none;fontColor=#000000;labelBorderColor=none;strokeColor=#0000FF;" vertex="1" parent="1">
                    <mxGeometry x="-884" y="647" width="220" height="60" as="geometry"/>
                </mxCell>
                <mxCell id="55" style="edgeStyle=none;html=1;exitX=0.5;exitY=1;exitDx=0;exitDy=0;entryX=0.5;entryY=0;entryDx=0;entryDy=0;strokeColor=#741e1d;endArrow=classic;endFill=1;rounded=1;fontColor=#000000;labelBorderColor=none;" edge="1" parent="1" source="52" target="54">
                    <mxGeometry relative="1" as="geometry"/>
                </mxCell>
                <mxCell id="56" value="return response" style="rounded=1;whiteSpace=wrap;html=1;fillColor=none;fontColor=#000000;labelBorderColor=none;strokeColor=#0000FF;" vertex="1" parent="1">
                    <mxGeometry x="-834" y="880" width="120" height="60" as="geometry"/>
                </mxCell>
                <mxCell id="57" style="edgeStyle=none;html=1;exitX=0.5;exitY=1;exitDx=0;exitDy=0;entryX=0.5;entryY=0;entryDx=0;entryDy=0;strokeColor=#741e1d;endArrow=classic;endFill=1;rounded=1;fontColor=#000000;labelBorderColor=none;" edge="1" parent="1" source="54" target="56">
                    <mxGeometry relative="1" as="geometry"/>
                </mxCell>
                <mxCell id="86" value="" style="rounded=1;whiteSpace=wrap;html=1;fillColor=none;container=0;fontColor=#000000;labelBorderColor=none;strokeColor=#0F8B8D;" vertex="1" parent="1">
                    <mxGeometry x="-1460" y="600" width="485" height="140" as="geometry"/>
                </mxCell>
                <mxCell id="87" value="except Exceptions" style="text;html=1;strokeColor=none;fillColor=none;align=center;verticalAlign=middle;whiteSpace=wrap;rounded=1;container=0;fontColor=#000000;labelBorderColor=none;" vertex="1" parent="1">
                    <mxGeometry x="-1460" y="600" width="125" height="25" as="geometry"/>
                </mxCell>
                <mxCell id="89" value="" style="endArrow=classic;html=1;strokeColor=#741e1d;exitX=0;exitY=0.5;exitDx=0;exitDy=0;rounded=1;fontColor=#000000;labelBorderColor=none;" edge="1" parent="1" source="81">
                    <mxGeometry width="50" height="50" relative="1" as="geometry">
                        <mxPoint x="-1435" y="645" as="sourcePoint"/>
                        <mxPoint x="-1520" y="675" as="targetPoint"/>
                    </mxGeometry>
                </mxCell>
                <mxCell id="78" value="error_handling(...)&lt;br&gt;self.__bad_proxies += 1" style="rounded=1;whiteSpace=wrap;html=1;fillColor=none;container=0;fontColor=#000000;labelBorderColor=none;strokeColor=#0F8B8D;" vertex="1" parent="1">
                    <mxGeometry x="-1137.5" y="645" width="145" height="60" as="geometry"/>
                </mxCell>
                <mxCell id="81" value="return self.rotating_requests(url, proxy)" style="rounded=1;whiteSpace=wrap;html=1;fillColor=none;container=0;fontColor=#000000;labelBorderColor=none;strokeColor=#0F8B8D;" vertex="1" parent="1">
                    <mxGeometry x="-1440" y="645" width="255" height="60" as="geometry"/>
                </mxCell>
                <mxCell id="82" style="edgeStyle=none;html=1;exitX=0;exitY=0.5;exitDx=0;exitDy=0;entryX=1;entryY=0.5;entryDx=0;entryDy=0;strokeColor=#741e1d;endArrow=classic;endFill=1;rounded=1;fontColor=#000000;labelBorderColor=none;" edge="1" parent="1" source="78" target="81">
                    <mxGeometry relative="1" as="geometry"/>
                </mxCell>
                <mxCell id="73" value="if timeout[0] &amp;lt;&lt;br&gt;self.__max_timeout:" style="rhombus;whiteSpace=wrap;html=1;fillColor=none;rounded=1;fontColor=#000000;labelBorderColor=none;strokeColor=#0F8B8D;" vertex="1" parent="1">
                    <mxGeometry x="-1135" y="347" width="140" height="140" as="geometry"/>
                </mxCell>
                <mxCell id="75" value="return self.rotating_requests(url, proxy, timeout=(timeout[0]+timeout[1], timeout[0]))" style="rounded=1;whiteSpace=wrap;html=1;fillColor=none;fontColor=#000000;labelBorderColor=none;strokeColor=#0F8B8D;" vertex="1" parent="1">
                    <mxGeometry x="-1440" y="387" width="255" height="60" as="geometry"/>
                </mxCell>
                <mxCell id="76" style="edgeStyle=none;html=1;exitX=0;exitY=0.5;exitDx=0;exitDy=0;entryX=1;entryY=0.5;entryDx=0;entryDy=0;strokeColor=#741e1d;endArrow=classic;endFill=1;rounded=1;fontColor=#000000;labelBorderColor=none;" edge="1" parent="1" source="73" target="75">
                    <mxGeometry relative="1" as="geometry"/>
                </mxCell>
                <mxCell id="77" value="True" style="edgeLabel;html=1;align=center;verticalAlign=middle;resizable=0;points=[];rounded=1;fontColor=#000000;labelBorderColor=none;labelBackgroundColor=#fae5c7;" vertex="1" connectable="0" parent="76">
                    <mxGeometry x="0.3616" y="1" relative="1" as="geometry">
                        <mxPoint x="14" y="-1" as="offset"/>
                    </mxGeometry>
                </mxCell>
                <mxCell id="84" value="except Timeout:" style="text;html=1;strokeColor=none;fillColor=none;align=center;verticalAlign=middle;whiteSpace=wrap;rounded=1;fontColor=#000000;labelBorderColor=none;" vertex="1" parent="1">
                    <mxGeometry x="-1460" y="328" width="115" height="25" as="geometry"/>
                </mxCell>
                <mxCell id="88" value="" style="endArrow=classic;html=1;strokeColor=#741e1d;exitX=0;exitY=0.5;exitDx=0;exitDy=0;rounded=1;fontColor=#000000;labelBorderColor=none;" edge="1" parent="1" source="75">
                    <mxGeometry width="50" height="50" relative="1" as="geometry">
                        <mxPoint x="-1435" y="645" as="sourcePoint"/>
                        <mxPoint x="-1520" y="417" as="targetPoint"/>
                    </mxGeometry>
                </mxCell>
                <mxCell id="91" value="" style="endArrow=classic;html=1;strokeColor=#741e1d;rounded=1;fontColor=#000000;labelBorderColor=none;" edge="1" parent="1">
                    <mxGeometry width="50" height="50" relative="1" as="geometry">
                        <mxPoint x="-1520" y="675" as="sourcePoint"/>
                        <mxPoint x="-1520" y="-500" as="targetPoint"/>
                    </mxGeometry>
                </mxCell>
                <mxCell id="92" value="" style="endArrow=classic;html=1;strokeColor=#741e1d;rounded=1;fontColor=#000000;labelBorderColor=none;" edge="1" parent="1">
                    <mxGeometry width="50" height="50" relative="1" as="geometry">
                        <mxPoint x="-1520" y="-500" as="sourcePoint"/>
                        <mxPoint x="30" y="-500" as="targetPoint"/>
                    </mxGeometry>
                </mxCell>
                <mxCell id="16" value="if not timeout:" style="rhombus;whiteSpace=wrap;html=1;rounded=1;fontColor=#000000;labelBorderColor=none;strokeColor=#0F8B8D;fillColor=#fae5c7;" vertex="1" parent="1">
                    <mxGeometry x="-784" y="10" width="140" height="140" as="geometry"/>
                </mxCell>
                <mxCell id="20" value="self.__valid_proxies_index =&lt;br&gt;self.__request_counter % len(self.__valid_proxies)" style="rounded=1;whiteSpace=wrap;html=1;fontColor=#000000;labelBorderColor=none;strokeColor=#0F8B8D;fillColor=#fae5c7;" vertex="1" parent="1">
                    <mxGeometry x="-1044" y="50" width="195" height="60" as="geometry"/>
                </mxCell>
                <mxCell id="21" style="edgeStyle=none;html=1;exitX=0;exitY=0.5;exitDx=0;exitDy=0;entryX=1;entryY=0.5;entryDx=0;entryDy=0;strokeColor=#CC0000;rounded=1;fontColor=#000000;labelBorderColor=none;" edge="1" parent="1" source="16" target="20">
                    <mxGeometry relative="1" as="geometry"/>
                </mxCell>
                <mxCell id="22" value="True" style="edgeLabel;html=1;align=center;verticalAlign=middle;resizable=0;points=[];rounded=1;fontColor=#000000;labelBorderColor=none;labelBackgroundColor=#fae5c7;" vertex="1" connectable="0" parent="21">
                    <mxGeometry x="-0.482" y="1" relative="1" as="geometry">
                        <mxPoint x="-13" y="-1" as="offset"/>
                    </mxGeometry>
                </mxCell>
                <mxCell id="23" value="proxies = &lt;br&gt;{&quot;http&quot;: self.__valid_proxies[self.__valid_proxies_index], &quot;https&quot;: self.__valid_proxies[self.__valid_proxies_index]}" style="rounded=1;whiteSpace=wrap;html=1;fontColor=#000000;labelBorderColor=none;strokeColor=#0F8B8D;fillColor=#fae5c7;" vertex="1" parent="1">
                    <mxGeometry x="-1044" y="200" width="395" height="60" as="geometry"/>
                </mxCell>
                <mxCell id="26" style="edgeStyle=none;html=1;exitX=0.5;exitY=1;exitDx=0;exitDy=0;strokeColor=#CC0000;snapToPoint=0;noJump=0;ignoreEdge=0;sourcePortConstraint=none;anchorPointDirection=1;fixDash=0;entryX=0.837;entryY=-0.046;entryDx=0;entryDy=0;entryPerimeter=0;rounded=1;fontColor=#000000;labelBorderColor=none;" edge="1" parent="1" source="16" target="23">
                    <mxGeometry relative="1" as="geometry">
                        <mxPoint x="-944" y="155" as="targetPoint"/>
                    </mxGeometry>
                </mxCell>
                <mxCell id="31" value="False" style="edgeLabel;html=1;align=center;verticalAlign=middle;resizable=0;points=[];rounded=1;fontColor=#000000;labelBorderColor=none;labelBackgroundColor=#fae5c7;" vertex="1" connectable="0" parent="26">
                    <mxGeometry x="-0.352" relative="1" as="geometry">
                        <mxPoint as="offset"/>
                    </mxGeometry>
                </mxCell>
                <mxCell id="24" style="edgeStyle=none;html=1;exitX=0.5;exitY=1;exitDx=0;exitDy=0;entryX=0.25;entryY=0;entryDx=0;entryDy=0;strokeColor=#CC0000;rounded=1;fontColor=#000000;labelBorderColor=none;" edge="1" parent="1" source="20" target="23">
                    <mxGeometry relative="1" as="geometry"/>
                </mxCell>
                <mxCell id="94" value="return False" style="rounded=1;whiteSpace=wrap;html=1;fillColor=#fae5c7;fontColor=#000000;labelBorderColor=none;strokeColor=#0F8B8D;" vertex="1" parent="1">
                    <mxGeometry x="-470" y="880" width="120" height="60" as="geometry"/>
                </mxCell>
                <mxCell id="95" value="return response" style="rounded=1;whiteSpace=wrap;html=1;fillColor=#fae5c7;fontColor=#000000;labelBorderColor=none;strokeColor=#0F8B8D;" vertex="1" parent="1">
                    <mxGeometry x="-834" y="880" width="120" height="60" as="geometry"/>
                </mxCell>
                <mxCell id="97" value="response = requests.get(url, proxies=proxies, headers={...}, timeout=timeout[0])" style="rounded=1;whiteSpace=wrap;html=1;fillColor=none;fontColor=#000000;labelBorderColor=none;strokeColor=#0F8B8D;" vertex="1" parent="1">
                    <mxGeometry x="-884" y="647" width="220" height="60" as="geometry"/>
                </mxCell>
                <mxCell id="98" value="self.__request_counter &lt;br&gt;+= 1" style="rounded=1;whiteSpace=wrap;html=1;fillColor=none;fontColor=#000000;labelBorderColor=none;strokeColor=#0F8B8D;" vertex="1" parent="1">
                    <mxGeometry x="-850" y="552.5" width="152" height="60" as="geometry"/>
                </mxCell>
            </root>
        </mxGraphModel>
    </diagram>
</mxfile>